<?xml version="1.0" encoding="UTF-8"?>
<svg id="_レイヤー_2" data-name="レイヤー 2" xmlns="http://www.w3.org/2000/svg" viewBox="0 0 223.63 39.93">
  <g id="_レイヤー_1-2" data-name="レイヤー 1">
    <g>
      <path d="M13.81,39.42c-.36-.34-.54-.75-.54-1.23V8.43c0-.44-.17-.84-.51-1.2-.34-.36-.75-.54-1.23-.54H1.73c-.48,0-.89-.17-1.23-.51-.34-.34-.51-.73-.51-1.17V1.79c0-.44.17-.84.51-1.2C.85.24,1.26.06,1.73.06h36.4c.44,0,.84.18,1.2.54.36.36.54.76.54,1.2v3.23c0,.44-.18.83-.54,1.17-.36.34-.76.51-1.2.51h-9.86c-.44,0-.84.18-1.2.54-.36.36-.54.76-.54,1.2v29.77c0,.48-.17.89-.51,1.23s-.73.51-1.17.51h-9.86c-.44,0-.84-.17-1.2-.51Z"/>
      <path d="M45.82,39.42c-.34-.34-.51-.75-.51-1.23V8.43c0-.44.17-.84.51-1.2.34-.36.75-.54,1.23-.54h3.17c.48,0,.89-.17,1.23-.51s.51-.73.51-1.17V1.79c0-.44.18-.84.54-1.2s.76-.54,1.2-.54h23.13c.44,0,.84.18,1.2.54.36.36.54.76.54,1.2v3.23c0,.44.17.83.51,1.17.34.34.75.51,1.23.51h3.17c.44,0,.84.18,1.2.54.36.36.54.76.54,1.2v29.77c0,.48-.18.89-.54,1.23-.36.34-.76.51-1.2.51h-9.86c-.44,0-.83-.17-1.17-.51-.34-.34-.51-.75-.51-1.23v-9.8c0-.48-.18-.89-.54-1.23-.36-.34-.76-.51-1.2-.51h-9.86c-.44,0-.84.17-1.2.51-.36.34-.54.75-.54,1.23v9.8c0,.48-.17.89-.51,1.23s-.75.51-1.23.51h-9.8c-.48,0-.89-.17-1.23-.51ZM70.18,20.03c.44,0,.84-.18,1.2-.54s.54-.76.54-1.2v-9.86c0-.44-.18-.84-.54-1.2-.36-.36-.76-.54-1.2-.54h-9.86c-.44,0-.84.18-1.2.54s-.54.76-.54,1.2v9.86c0,.44.18.84.54,1.2.36.36.76.54,1.2.54h9.86Z"/>
      <path d="M94.18,39.42c-.34-.34-.51-.75-.51-1.23v-3.17c0-.48.17-.89.51-1.23.34-.34.75-.51,1.23-.51h16.55c.44,0,.83-.17,1.17-.51.34-.34.51-.75.51-1.23v-3.18c0-.48-.17-.89-.51-1.23s-.73-.51-1.17-.51h-9.89c-.44,0-.84-.18-1.2-.54-.36-.36-.54-.76-.54-1.2v-3.18c0-.48-.17-.89-.51-1.23s-.75-.51-1.23-.51l-3.18.06c-.48,0-.89-.18-1.23-.54-.34-.36-.51-.76-.51-1.2v-9.86c0-.44.17-.84.51-1.2.34-.36.75-.54,1.23-.54h3.17c.48,0,.89-.17,1.23-.51s.51-.73.51-1.17V1.79c0-.44.18-.84.54-1.2s.76-.54,1.2-.54h23.13c.44,0,.84.18,1.2.54.36.36.54.76.54,1.2v3.23c0,.44-.18.83-.54,1.17-.36.34-.76.51-1.2.51h-16.5c-.44,0-.84.18-1.2.53-.36.36-.54.75-.54,1.18v3.2c0,.43.18.83.54,1.18.36.36.76.53,1.2.53h9.86c.44,0,.84.17,1.2.51.36.34.54.73.54,1.17v3.23c0,.44.17.84.51,1.2.34.36.73.54,1.17.54h3.23c.44,0,.84.17,1.2.51.36.34.54.75.54,1.23v9.85c0,.48-.18.89-.54,1.23-.36.34-.76.51-1.2.51h-3.23c-.44,0-.83.17-1.17.51s-.51.75-.51,1.23v3.17c0,.48-.18.89-.54,1.23-.36.34-.76.51-1.2.51h-23.13c-.48,0-.89-.17-1.23-.51Z"/>
      <path d="M137.1,39.42c-.34-.34-.51-.75-.51-1.23V1.73c0-.44.17-.84.51-1.2.34-.36.75-.54,1.23-.54h9.8c.48,0,.89.18,1.23.54.34.36.51.76.51,1.2v16.51c0,.44.18.84.54,1.2.36.36.76.54,1.21.54h3.26c.44,0,.83-.18,1.18-.54.34-.36.51-.76.51-1.2v-3.24c0-.44.18-.83.53-1.17.35-.34.75-.51,1.18-.51h3.2c.43,0,.83-.18,1.18-.53.35-.35.53-.75.53-1.18v-3.2c0-.43.17-.83.51-1.18.34-.35.73-.53,1.17-.53h3.23c.44,0,.84-.17,1.2-.51.36-.34.54-.73.54-1.17V1.79c0-.44.17-.84.51-1.2.34-.36.75-.54,1.23-.54h3.17c.44,0,.84.18,1.2.54.36.36.54.76.54,1.2v3.23c0,.44-.18.83-.54,1.17-.36.34-.76.51-1.2.51h-3.17c-.48,0-.89.18-1.23.53-.34.36-.51.75-.51,1.18v3.2c0,.43-.18.83-.54,1.18-.36.36-.76.53-1.2.53h-3.23c-.44,0-.83.17-1.17.51-.34.34-.51.73-.51,1.17v3.24c0,.44.17.84.51,1.2.34.36.73.54,1.17.54h3.23c.44,0,.84.17,1.2.51.36.34.54.75.54,1.23v3.18c0,.44.17.84.51,1.2.34.36.75.54,1.23.54h3.17c.44,0,.84.17,1.2.51.36.34.54.75.54,1.23v9.8c0,.48-.18.89-.54,1.23-.36.34-.76.51-1.2.51h-9.86c-.44,0-.83-.17-1.17-.51-.34-.34-.51-.75-.51-1.23v-3.17c0-.48-.18-.89-.53-1.23-.36-.34-.75-.51-1.18-.51h-3.2c-.43,0-.83-.17-1.18-.51-.36-.34-.53-.75-.53-1.23v-3.17c0-.48-.17-.89-.51-1.23-.34-.34-.73-.51-1.18-.51h-3.26c-.44,0-.85.17-1.21.51-.36.34-.54.75-.54,1.23v9.8c0,.48-.17.89-.51,1.23s-.75.51-1.23.51h-9.8c-.48,0-.89-.17-1.23-.51Z"/>
      <path d="M184.26,39.42c-.34-.34-.51-.75-.51-1.23V1.79c0-.44.17-.84.51-1.2.34-.36.75-.54,1.23-.54h29.77c.44,0,.84.18,1.2.54.36.36.54.76.54,1.2v3.23c0,.44.17.83.51,1.17.34.34.75.51,1.23.51h3.17c.44,0,.84.18,1.2.54.36.36.54.75.54,1.19v9.82c0,.44-.18.83-.54,1.19-.36.36-.76.54-1.2.54h-3.17c-.48,0-.89.17-1.23.51-.34.34-.51.75-.51,1.23v9.85c0,.48.17.89.51,1.23.34.34.75.51,1.23.51h3.17c.44,0,.84.17,1.2.51.36.34.54.75.54,1.23v3.17c0,.48-.18.89-.54,1.23-.36.34-.76.51-1.2.51h-9.84c-.44,0-.82-.17-1.16-.51-.34-.34-.51-.75-.51-1.23v-3.17c0-.48-.18-.89-.54-1.23-.36-.34-.75-.51-1.19-.51h-3.21c-.44,0-.83-.17-1.19-.51-.36-.34-.54-.75-.54-1.23v-3.17c0-.48-.17-.89-.51-1.23-.34-.34-.73-.51-1.18-.51h-3.26c-.44,0-.85.17-1.21.51-.36.34-.54.75-.54,1.23v9.8c0,.48-.17.89-.51,1.23s-.75.51-1.23.51h-9.8c-.48,0-.89-.17-1.23-.51ZM208.62,19.97c.44,0,.84-.18,1.2-.54.36-.36.54-.75.54-1.19v-9.82c0-.44-.18-.83-.54-1.19-.36-.36-.76-.54-1.2-.54h-9.86c-.44,0-.84.18-1.2.54s-.54.76-.54,1.2v9.86c0,.44.18.84.54,1.2.36.36.76.54,1.2.54l9.86-.06Z"/>
    </g>
  </g>
</svg>